<svg width="79" height="74" viewBox="0 0 79 74" fill="none" xmlns="http://www.w3.org/2000/svg">
<path opacity="0.6" d="M46.083 49.3332C46.083 54.7907 43.5484 59.724 39.4997 63.0849C36.0105 66.0449 31.4022 67.8332 26.333 67.8332C15.4376 67.8332 6.58301 59.539 6.58301 49.3332C6.58301 40.8232 12.7713 33.6082 21.1322 31.4807C23.4034 36.8457 28.2751 40.9774 34.2988 42.519C35.9447 42.9507 37.6893 43.1665 39.4997 43.1665C41.3101 43.1665 43.0547 42.9507 44.7005 42.519C45.5893 44.6157 46.083 46.9282 46.083 49.3332Z" fill="#FF432A"/>
<path d="M59.25 24.6667C59.25 27.0717 58.7563 29.3842 57.8675 31.4809C55.5963 36.8459 50.7246 40.9776 44.7008 42.5192C43.055 42.9509 41.3104 43.1667 39.5 43.1667C37.6896 43.1667 35.945 42.9509 34.2992 42.5192C28.2754 40.9776 23.4038 36.8459 21.1325 31.4809C20.2438 29.3842 19.75 27.0717 19.75 24.6667C19.75 14.4609 28.6046 6.16675 39.5 6.16675C50.3954 6.16675 59.25 14.4609 59.25 24.6667Z" fill="#FF432A"/>
<path opacity="0.4" d="M72.4167 49.3332C72.4167 59.539 63.5621 67.8332 52.6667 67.8332C47.5975 67.8332 42.9892 66.0449 39.5 63.0849C43.5487 59.724 46.0833 54.7907 46.0833 49.3332C46.0833 46.9282 45.5896 44.6157 44.7008 42.519C50.7246 40.9774 55.5962 36.8457 57.8675 31.4807C66.2283 33.6082 72.4167 40.8232 72.4167 49.3332Z" fill="#FF432A"/>
</svg>
